PathFileType	4	(X/Y/Z)	s02c0303.trc
DataRate	CameraRate	NumFrames	NumMarkers	Units	OrigDataRate	OrigDataStartFrame	OrigNumFrames
200	200	6	50	mm	200	1750	2000
Frame#	Time	racr			lacr			c7			jug			rlel			rdr			llel			ldr			s2			lic			ric			lasi			rasi			rpsi			lpsi			rgt			lgt			rth1			rth2			rth3			rth4			rlfc			rmfc			rsh1			rsh2			rsh3			rsh4			rlmal			rmmal			rtoe			rmt5			rmt1			lth1			lth2			lth4			lth3			llfc			lmfc			lsh1			lsh2			lsh3			lsh4			llmal			lmmal			lcal			ltoe			lmt5			SBIKE			LBIKE			RBIKE			
		X1	Y1	Z1	X2	Y2	Z2	X3	Y3	Z3	X4	Y4	Z4	X5	Y5	Z5	X6	Y6	Z6	X7	Y7	Z7	X8	Y8	Z8	X9	Y9	Z9	X10	Y10	Z10	X11	Y11	Z11	X12	Y12	Z12	X13	Y13	Z13	X14	Y14	Z14	X15	Y15	Z15	X16	Y16	Z16	X17	Y17	Z17	X18	Y18	Z18	X19	Y19	Z19	X20	Y20	Z20	X21	Y21	Z21	X22	Y22	Z22	X23	Y23	Z23	X24	Y24	Z24	X25	Y25	Z25	X26	Y26	Z26	X27	Y27	Z27	X28	Y28	Z28	X29	Y29	Z29	X30	Y30	Z30	X31	Y31	Z31	X32	Y32	Z32	X33	Y33	Z33	X34	Y34	Z34	X35	Y35	Z35	X36	Y36	Z36	X37	Y37	Z37	X38	Y38	Z38	X39	Y39	Z39	X40	Y40	Z40	X41	Y41	Z41	X42	Y42	Z42	X43	Y43	Z43	X44	Y44	Z44	X45	Y45	Z45	X46	Y46	Z46	X47	Y47	Z47	X48	Y48	Z48	X49	Y49	Z49	X50	Y50	Z50	
1750	8.7500	762.035806	1231.655159	-133.677201	826.681629	1187.735105	-474.925200	800.219366	1243.433561	-314.050134	727.370789	1122.235346	-298.608525	615.391917	1007.441878	-61.214952	725.677218	847.821665	-134.749679	663.385455	1013.827330	-644.783323	716.048956	839.359104	-531.227554	255.047436	1215.541614	-391.463899	387.755891	1148.115681	-519.294399	356.949638	1200.849093	-230.106862	415.102592	1104.198156	-481.266872	401.080355	1167.577588	-262.261220	273.221058	1246.466215	-359.352149	296.663194	1236.608883	-442.023521	324.239046	1136.132188	-188.126334	304.489184	1069.903600	-538.939031	400.187642	1089.359976	-178.043627	478.320743	1048.477543	-175.491414	528.090640	985.848717	-143.449809	498.579442	1064.806689	-203.256788	613.060998	862.022857	-161.085208	606.590322	836.187951	-271.854255	570.983246	756.970937	-138.968062	529.217601	674.518132	-156.234782	467.762051	622.268140	-145.409011	544.681387	668.743097	-192.011103	383.685552	529.772659	-145.153659	395.405660	546.008747	-225.885154	559.573975	401.639723	-196.370943	454.977264	422.439840	-130.671200	480.440015	429.079823	-239.012842	362.286589	945.349072	-554.605298	403.342551	867.849282	-554.901996	436.472928	876.006716	-540.045926	397.749551	778.843668	-550.903449	413.274794	679.718518	-532.040422	420.014975	650.825496	-432.143987	352.168994	593.709349	-547.307833	320.074182	516.068633	-527.754923	248.485537	460.952798	-522.607637	340.625867	506.724606	-493.139130	177.402950	381.516801	-501.853574	196.260812	370.445683	-426.520528	107.903000	403.628297	-454.363015	247.532628	153.579251	-437.998818	171.218783	224.795852	-505.880321	-128.595363	869.865348	-312.644274	32.579002	83.167798	-515.128173	32.541665	82.686973	-115.056412	
1751	8.7550	762.404172	1230.797485	-133.108112	827.038596	1189.258597	-474.873498	800.802626	1243.459081	-313.584053	727.199552	1122.632410	-298.912385	613.858571	1007.193352	-62.496578	725.485694	848.213612	-135.089838	664.006582	1014.319285	-643.859218	716.195623	839.282265	-530.889485	255.850087	1217.224410	-390.616651	388.082631	1150.763937	-518.581603	356.880243	1200.479451	-229.283312	415.494147	1106.188824	-481.423583	401.321491	1167.400198	-261.228617	274.138590	1248.863499	-358.323630	297.828917	1238.781675	-441.490634	323.774197	1135.501039	-188.026901	306.016545	1072.210765	-539.564798	399.215921	1086.599477	-177.383548	476.376612	1043.740717	-175.492593	524.160003	980.517371	-141.820282	497.179455	1060.116952	-202.001505	608.410403	854.188581	-160.783443	601.035670	829.199764	-271.032485	566.615895	748.153020	-138.681051	534.566296	667.417007	-151.192461	466.134452	611.243142	-145.645904	541.963193	659.621838	-191.798849	384.609736	518.173647	-145.327802	395.921133	534.222116	-226.539051	564.036008	394.579688	-196.135473	458.799963	412.621151	-130.479155	484.240461	420.182446	-238.751251	365.801339	948.528750	-554.636460	408.252765	871.820171	-555.104202	441.286504	880.503364	-540.517853	404.270633	782.740458	-551.316044	420.820896	683.704005	-532.826437	427.961821	654.602007	-432.703912	358.455645	598.038349	-547.702963	324.028233	521.433594	-527.946032	250.947782	468.357788	-522.856243	344.128960	511.662241	-493.167583	176.844101	390.685247	-502.274986	195.382814	379.071751	-426.531718	107.845572	414.242396	-454.149919	241.384507	160.935276	-437.966121	166.649946	233.954527	-505.848525	-128.510345	869.914165	-312.488140	32.591542	83.259551	-515.094179	32.550157	82.687025	-115.050133	
1752	8.7600	763.099241	1230.141523	-132.772548	827.419369	1191.113326	-474.979441	801.406865	1243.638970	-313.364310	727.513686	1122.935335	-299.233967	612.578991	1007.588118	-63.427903	725.384681	848.491720	-135.415987	664.499469	1014.934476	-642.889421	716.323824	839.246738	-530.582532	256.481493	1218.525102	-390.192573	388.446256	1153.173733	-518.205727	357.061217	1199.952011	-228.184933	415.785398	1108.118701	-481.295333	401.332831	1166.823775	-260.209321	275.347828	1250.606065	-357.601953	298.729341	1240.816653	-440.552341	322.932896	1134.032215	-187.810886	307.788722	1074.365111	-540.293838	398.033335	1083.242732	-176.565287	474.292850	1038.776297	-174.315293	520.330558	974.355772	-140.744907	495.632113	1054.890490	-200.503825	601.004511	846.522970	-158.528322	595.109195	820.242779	-270.261711	561.310198	739.292017	-137.973476	528.148780	656.758693	-153.021487	464.276719	599.922775	-145.735099	538.345999	649.930886	-191.487994	386.341460	506.214390	-145.143817	396.631615	522.058094	-227.081754	568.010813	386.549410	-195.970931	462.259123	402.336681	-130.406095	487.506237	410.756905	-238.886809	369.582083	951.612014	-554.514934	413.311116	875.578225	-555.044523	446.209268	884.849106	-540.715654	410.818740	786.438554	-551.431529	428.088631	687.513960	-533.484352	435.540986	658.428528	-432.923583	364.558239	602.451766	-547.947325	328.187545	527.118583	-528.389667	253.340868	475.889067	-523.043967	347.406788	516.949697	-492.764959	176.424798	400.247909	-502.592736	194.730813	388.123637	-426.568560	107.778322	425.205683	-454.176227	235.836725	169.092346	-438.095986	162.606329	243.501669	-505.847620	-128.410930	869.941992	-312.406221	32.597127	83.308478	-515.076377	32.566456	82.701653	-115.043212	
1753	8.7650	763.889344	1229.605124	-132.775328	827.712186	1193.217070	-475.371427	802.103419	1243.923254	-313.351435	727.479897	1123.609379	-299.837579	611.825584	1007.867662	-64.582760	725.378600	848.604153	-135.812735	664.910279	1015.525030	-641.991929	716.421102	839.259481	-530.314025	256.977298	1219.468028	-389.540648	388.866749	1155.206788	-517.443788	356.686623	1199.109697	-227.228196	416.152337	1110.020854	-481.213718	401.436796	1166.118454	-258.813824	275.320038	1252.504235	-356.029566	299.253760	1242.938300	-439.209133	321.740885	1132.065644	-187.513090	309.689181	1076.279910	-540.968435	396.716388	1079.418484	-175.593620	472.023710	1033.582355	-172.661560	516.379671	967.761973	-139.603137	494.020731	1049.434396	-198.813284	594.022327	837.347668	-157.516717	588.937699	812.395117	-269.144634	555.270010	730.342567	-136.831698	524.678712	646.930252	-152.692760	462.268805	588.298962	-145.724268	535.895557	640.870636	-191.061402	387.332666	494.112335	-145.654388	397.349272	509.889426	-227.580245	571.388597	377.673025	-195.728594	465.325862	391.843101	-130.404658	490.280067	401.013086	-239.053493	373.610979	954.567564	-554.336930	418.502773	879.291492	-554.653140	451.231655	889.012361	-540.657359	417.545051	790.122185	-551.434425	435.472601	691.298190	-534.453373	442.722591	662.213370	-432.849717	370.532532	606.895117	-548.128327	332.036806	532.698772	-528.406030	255.735927	483.594518	-523.249485	350.781795	522.087019	-492.555702	176.116538	410.002944	-502.795310	191.452553	399.316542	-426.207995	107.780123	436.034500	-454.211160	231.079912	177.597679	-438.072495	159.207610	253.348472	-505.903664	-128.319153	869.975266	-312.375001	32.619529	83.352031	-515.041104	32.893408	82.494126	-114.908178	
1754	8.7700	764.917871	1229.169772	-132.601270	827.826355	1195.473732	-475.932976	803.268751	1244.582414	-313.338891	726.513447	1125.510274	-300.900813	611.473863	1008.160460	-65.669044	725.473558	848.560333	-136.232442	665.218778	1016.250798	-641.144359	716.491724	839.301499	-530.138418	257.275543	1220.456886	-388.779696	389.197238	1157.223556	-516.598162	356.318519	1197.929134	-226.195655	416.502396	1111.806645	-480.925666	401.387372	1164.911619	-257.364425	275.291723	1254.329060	-354.514718	299.986033	1244.774345	-437.860628	320.339652	1129.463869	-187.209119	311.679816	1077.943966	-541.614461	395.328846	1075.296000	-174.519194	469.689620	1028.058063	-171.161255	512.143858	961.516846	-137.601435	492.244610	1043.670179	-196.914813	587.184614	828.777222	-157.360615	582.641012	804.357629	-268.080945	549.579626	721.175670	-135.889815	521.211721	637.165800	-152.233499	460.357262	576.842580	-145.779441	532.744526	631.410643	-190.600242	387.892147	482.231825	-145.919096	397.925545	497.941250	-227.958393	574.235115	368.281111	-195.497021	467.888282	381.187806	-130.332375	493.168684	390.673867	-238.346601	377.846417	957.374420	-554.070344	423.819273	882.853169	-554.244256	456.393951	893.011913	-540.359783	424.419518	793.668423	-550.957649	442.906875	694.901195	-534.808720	449.563552	665.918958	-432.606923	376.198674	611.456749	-547.920025	335.819954	538.316342	-528.299043	258.164337	491.320766	-523.310627	354.102827	527.241435	-492.338588	176.064902	419.854246	-502.954811	191.806142	407.973352	-426.154211	107.905300	446.837438	-454.141154	227.024368	186.371240	-438.096685	156.408842	263.343591	-505.884699	-128.261392	869.979766	-312.392041	32.625565	83.292385	-515.069239	32.438416	83.115985	-114.862864	
1755	8.7750	766.079224	1228.471096	-132.909705	827.852999	1197.833218	-476.684464	803.855378	1245.109784	-313.800730	727.065188	1126.014666	-301.906378	611.502857	1008.477860	-66.522088	725.625300	848.547157	-136.636546	665.433419	1016.960015	-640.470685	716.561894	839.334583	-529.965419	257.267571	1221.228148	-387.861820	389.444652	1159.156623	-515.762641	355.841591	1196.411196	-225.129551	416.866882	1113.567858	-480.462758	401.334179	1163.529264	-255.732902	277.249805	1253.908938	-354.464302	300.058137	1246.517021	-436.090233	318.883815	1126.761968	-186.638637	313.731061	1079.521025	-542.195503	393.839535	1070.902192	-173.320111	467.196910	1022.099465	-169.770997	507.698915	954.187353	-136.194173	490.324079	1037.723437	-195.035144	579.844133	819.800828	-156.987284	576.365579	796.208839	-267.021503	543.685284	712.156946	-135.115350	517.558766	627.474121	-151.922040	458.341284	565.489479	-145.856043	529.550032	622.179024	-190.141570	388.478097	470.421987	-146.071954	398.268393	486.241162	-228.091512	576.318785	358.333968	-195.324365	469.838055	370.298838	-130.346172	495.136000	380.382601	-238.463694	382.273285	960.085769	-553.682267	429.370271	886.161174	-553.738924	461.634849	896.790920	-539.825388	431.316309	797.131071	-550.724919	450.359702	698.225581	-534.578061	456.132073	669.681067	-432.243891	382.151281	615.881787	-547.981349	339.660812	544.130601	-528.277925	260.691391	499.205192	-523.344832	357.617458	532.548300	-492.190967	176.287840	430.064644	-502.946089	191.700605	417.671328	-425.946837	108.441142	457.777200	-453.919379	223.699915	195.571953	-438.213150	154.170843	273.520261	-505.861783	-128.265644	869.946834	-312.463792	32.621708	83.222710	-515.098608	32.158513	83.268220	-114.980278	
